<?xml version="1.0" encoding="UTF-8" standalone="no"?>
<svg
   xmlns:dc="http://purl.org/dc/elements/1.1/"
   xmlns:cc="http://creativecommons.org/ns#"
   xmlns:rdf="http://www.w3.org/1999/02/22-rdf-syntax-ns#"
   xmlns:svg="http://www.w3.org/2000/svg"
   xmlns="http://www.w3.org/2000/svg"
   xmlns:sodipodi="http://sodipodi.sourceforge.net/DTD/sodipodi-0.dtd"
   xmlns:inkscape="http://www.inkscape.org/namespaces/inkscape"
   version="1.1"
   id="svg2"
   xml:space="preserve"
   width="1136.2267"
   height="258.97333"
   viewBox="0 0 1136.2267 258.97333"
   sodipodi:docname="moderna-seeklogo.com.eps"><metadata
     id="metadata8"><rdf:RDF><cc:Work
         rdf:about=""><dc:format>image/svg+xml</dc:format><dc:type
           rdf:resource="http://purl.org/dc/dcmitype/StillImage" /></cc:Work></rdf:RDF></metadata><defs
     id="defs6" /><sodipodi:namedview
     pagecolor="#ffffff"
     bordercolor="#666666"
     borderopacity="1"
     objecttolerance="10"
     gridtolerance="10"
     guidetolerance="10"
     inkscape:pageopacity="0"
     inkscape:pageshadow="2"
     inkscape:window-width="640"
     inkscape:window-height="480"
     id="namedview4" /><g
     id="g10"
     inkscape:groupmode="layer"
     inkscape:label="ink_ext_XXXXXX"
     transform="matrix(1.3333333,0,0,-1.3333333,0,258.97333)"><g
       id="g12"
       transform="scale(0.1)"><path
         d="m 7854.03,119.031 h -121.54 c -28.28,0 -42.97,-20.8826 -42.97,-60.5818 C 7689.52,20.9609 7704.21,0 7732.49,0 h 467.22 c 29.76,0 44.68,20.9609 44.68,58.4492 0,39.6992 -14.92,60.5818 -44.68,60.5818 h -345.68"
         style="fill:#4db0e5;fill-opacity:1;fill-rule:nonzero;stroke:none"
         id="path14" /><path
         d="M 7141.42,119.031 H 7020.1 c -27.66,0 -44.17,-20.8826 -44.17,-60.5818 C 6975.93,20.9609 6992.44,0 7020.1,0 h 466.81 c 29.25,0 43.9,20.9609 43.9,58.4492 0,39.6992 -14.65,60.5818 -43.9,60.5818 h -345.49"
         style="fill:#54b9e5;fill-opacity:1;fill-rule:nonzero;stroke:none"
         id="path16" /><path
         d="m 6466.78,119.031 h -121.5 c -29.67,0 -43.02,-20.8826 -43.02,-60.5818 C 6302.26,20.9609 6315.61,0 6345.28,0 h 467.18 c 29.75,0 44.68,20.9609 44.68,58.4492 0,39.6992 -14.93,60.5818 -44.68,60.5818 h -345.68"
         style="fill:#5abee8;fill-opacity:1;fill-rule:nonzero;stroke:none"
         id="path18" /><path
         d="m 5754.17,119.031 h -120.76 c -29.76,0 -44.73,-20.8826 -44.73,-60.5818 C 5588.68,20.9609 5603.65,0 5633.41,0 h 465.64 c 29.85,0 44.55,20.9609 44.55,58.4492 0,39.6992 -14.7,60.5818 -44.55,60.5818 h -344.88"
         style="fill:#62c4eb;fill-opacity:1;fill-rule:nonzero;stroke:none"
         id="path20" /><path
         d="m 5040.83,119.031 h -120.99 c -29.58,0 -44.5,-20.8826 -44.5,-60.5818 C 4875.34,20.9609 4890.26,0 4919.84,0 h 465.87 c 29.62,0 44.5,20.9609 44.5,58.4492 0,39.6992 -14.88,60.5818 -44.5,60.5818 h -344.88"
         style="fill:#6ac9ed;fill-opacity:1;fill-rule:nonzero;stroke:none"
         id="path22" /><path
         d="m 4366.91,119.031 h -120.76 c -29.81,0 -44.68,-20.8826 -44.68,-60.5818 C 4201.47,20.9609 4216.34,0 4246.15,0 h 465.64 c 29.86,0 44.55,20.9609 44.55,58.4492 0,39.6992 -14.69,60.5818 -44.55,60.5818 h -344.88"
         style="fill:#71cdec;fill-opacity:1;fill-rule:nonzero;stroke:none"
         id="path24" /><path
         d="m 3653.58,119.031 h -121 c -29.57,0 -44.5,-20.8826 -44.5,-60.5818 C 3488.08,20.9609 3503.01,0 3532.58,0 h 465.88 c 31.16,0 44.5,20.9609 44.5,58.4492 0,39.6992 -13.34,60.5818 -44.5,60.5818 h -344.88"
         style="fill:#7bd2ef;fill-opacity:1;fill-rule:nonzero;stroke:none"
         id="path26" /><path
         d="m 2940.01,119.031 h -120.76 c -29.81,0 -44.73,-20.8826 -44.73,-60.5818 C 2774.52,20.9609 2789.44,0 2819.25,0 h 467.18 c 28.27,0 43.15,20.9609 43.15,58.4492 0,39.6992 -14.88,60.5818 -43.15,60.5818 h -346.42"
         style="fill:#85d7f0;fill-opacity:1;fill-rule:nonzero;stroke:none"
         id="path28" /><path
         d="m 2266.5,119.031 h -121.32 c -29.67,0 -44.36,-20.8826 -44.36,-60.5818 C 2100.82,20.9609 2115.51,0 2145.18,0 h 466.01 c 29.63,0 44.5,20.9609 44.5,58.4492 0,39.6992 -14.87,60.5818 -44.5,60.5818 H 2266.5"
         style="fill:#90dbed;fill-opacity:1;fill-rule:nonzero;stroke:none"
         id="path30" /><path
         d="m 1551.77,119.031 h -120.01 c -29.58,0 -44.5,-20.8826 -44.5,-60.5818 C 1387.26,20.9609 1402.18,0 1431.76,0 h 466.06 c 29.62,0 44.5,20.9609 44.5,58.4492 0,39.6992 -14.88,60.5818 -44.5,60.5818 h -346.05"
         style="fill:#9adef0;fill-opacity:1;fill-rule:nonzero;stroke:none"
         id="path32" /><path
         d="M 839.184,119.031 H 718.195 c -29.57,0 -44.312,-20.8826 -44.312,-60.5818 C 673.883,20.9609 688.625,0 718.195,0 h 466.245 c 29.62,0 44.32,20.9609 44.32,58.4492 0,39.6992 -14.7,60.5818 -44.32,60.5818 H 839.184"
         style="fill:#a7e2f1;fill-opacity:1;fill-rule:nonzero;stroke:none"
         id="path34" /><path
         d="M 164.512,119.031 H 43.1992 C 13.5781,119.031 0,98.1484 0,58.4492 0,20.9609 13.5781,0 43.1992,0 H 510.563 c 29.621,0 44.496,20.9609 44.496,58.4492 0,39.6992 -14.875,60.5818 -44.496,60.5818 H 164.512"
         style="fill:#b3e6f0;fill-opacity:1;fill-rule:nonzero;stroke:none"
         id="path36" /><path
         d="M 0.0195313,1559.71 H 126.965 v -174.37 c 43.566,65.01 88.437,111.09 134.707,140.71 63.473,39.1 130.848,59.43 200.875,59.43 47.43,0 92.531,-9.3 136.101,-28.28 42.176,-19.15 77.985,-44.5 104.301,-77.18 26.504,-31.2 50.313,-76.87 70.074,-135.32 42.172,78.4 95.18,138.2 157.122,180 63.468,40.45 130.805,60.78 203.575,60.78 68.72,0 128.15,-17.25 179.63,-52.46 51.47,-35.24 89.79,-84.2 116.29,-147.68 25.2,-62.3 37.01,-156.93 37.01,-281.41 V 555.102 H 1338.5 v 548.828 c 0,107.04 -7.95,181.35 -22.46,221.99 -15.85,40.69 -41.01,72.77 -77.98,97.18 -35.62,24.78 -79.37,36.6 -129.5,36.6 -60.73,0 -116.294,-18.79 -167.767,-55.57 -50.313,-35.99 -87.098,-86.12 -110.902,-147.08 -22.645,-62.35 -34.457,-164.88 -34.457,-308.702 V 555.102 H 668.68 v 513.628 c 0,121.92 -6.606,204.18 -21.11,247.75 -15.859,43.15 -41.015,78.35 -77.984,104.11 -36.965,25.72 -80.723,39.11 -130.801,39.11 -58.262,0 -112.297,-17.25 -163.957,-54.04 -50.125,-35.2 -87.094,-83.78 -112.25,-144.56 -23.808,-60.96 -35.613,-154.24 -35.613,-280.022 V 555.102 H 0.0195313 V 1559.71"
         style="fill:#e91b3e;fill-opacity:1;fill-rule:nonzero;stroke:none"
         id="path38" /><path
         d="m 2220.43,1585.46 c 151.54,0 277.74,-57.47 377.8,-169.91 91.75,-103.92 136.81,-225.84 136.81,-368.5 0,-141.312 -48.18,-265.562 -145.13,-371.198 -95.83,-107.043 -219.29,-160.43 -369.48,-160.43 -151.73,0 -275.37,53.387 -371.02,160.43 -97.14,105.636 -144.94,229.886 -144.94,371.198 0,141.08 45.29,263 136.85,367.11 99.83,113.83 226.22,171.3 379.11,171.3 m 0,-128.71 c -106.44,0 -196.79,-39.66 -272.68,-120.34 -75.69,-79.74 -114.38,-176.93 -114.38,-291.87 0,-72.774 17.44,-141.27 51.89,-205.712 34.64,-63.289 81.05,-112.449 141.08,-146.527 58.45,-34.262 122.29,-52.082 194.09,-52.082 69.1,0 134.34,17.82 192.78,52.082 59.62,34.078 106.25,83.238 140.9,146.527 34.64,64.442 52.03,132.938 52.03,205.712 0,114.94 -38.69,212.13 -114.39,291.87 -75.84,80.68 -166.23,120.34 -271.32,120.34"
         style="fill:#e91b3e;fill-opacity:1;fill-rule:nonzero;stroke:none"
         id="path40" /><path
         d="M 3963.6,1942.34 V 541.18 h -125.22 v 174.359 c -53.61,-66.391 -113.6,-115.359 -178.84,-149.617 -66.35,-32.692 -139.72,-50.5 -218.49,-50.5 -139.74,0 -260.12,52.027 -358.79,156.558 -98.54,103.559 -149.04,228.782 -149.04,378.97 0,144.75 50.5,269.98 150.57,373.48 100.07,103.55 219.85,155.21 361.16,155.21 81.28,0 154.61,-17.39 220.04,-53 66.77,-35.25 124.24,-88.63 173.39,-159.68 v 575.38 z m -507.82,-488.11 c -72.21,0 -137.21,-17.76 -197.01,-53 -60.59,-36.6 -107.05,-85.75 -142.85,-151.17 -34.64,-64.4 -53.43,-132.15 -53.43,-203.02 0,-72.399 18.79,-140.7 53.43,-204.739 35.8,-65.422 83.79,-115.922 143.78,-152.512 61.38,-35.25 125.22,-54.59 194.69,-54.59 69.33,0 136.24,19.34 198.6,54.59 61.56,35.621 109.5,84.77 144.14,145.731 33.3,61.332 49.2,130.613 49.2,207.48 0,116.89 -37.15,215.01 -113.59,292.8 -74.31,78.77 -167.82,118.43 -276.96,118.43"
         style="fill:#e91b3e;fill-opacity:1;fill-rule:nonzero;stroke:none"
         id="path42" /><path
         d="m 5090.74,880.051 107.6,-59.063 c -34.64,-69.84 -76.82,-127.359 -122.3,-171.25 -47.25,-43.758 -99.7,-76.816 -157.54,-100.25 -57.47,-21.668 -123.88,-34.09 -197.8,-34.09 -162.57,0 -290.3,54.973 -382.04,162.993 -91.52,109.55 -137.22,231.789 -137.22,368.639 0,130.29 37.76,245.24 115.92,345.3 99.14,128.9 231.52,193.11 396.96,193.11 169.36,0 305.23,-65.8 407.2,-196.96 72.77,-93.33 108.94,-208.65 110.53,-348.38 h -898.79 c 3.07,-117.881 39.11,-215.061 111.46,-290.338 71.43,-75.282 160.66,-113.973 265.19,-113.973 51.42,0 99.41,9.859 148.01,27.66 48.59,17.871 88.62,42.231 122.52,71.43 35.02,29.621 71.19,77.793 110.3,145.172 m 0,274.019 c -17.21,69.89 -42.97,124.25 -75.28,166.84 -32.13,41.2 -75.29,75.29 -130.85,100.07 -53.38,26.31 -109.93,38.69 -169.31,38.69 -98.16,0 -181.35,-31.72 -252.76,-95.98 -50.88,-46.69 -90.17,-116.53 -116.86,-209.62 h 745.06"
         style="fill:#e91b3e;fill-opacity:1;fill-rule:nonzero;stroke:none"
         id="path44" /><path
         d="m 5430.22,1559.71 h 133.31 v -147.07 c 39.52,57.89 82.31,101.04 126.2,129.87 45.67,28.22 90.76,42.97 138.75,42.97 37.16,0 75.89,-12.37 116.91,-33.67 l -68.69,-109.36 c -27.29,11.81 -50.68,17.25 -68.54,17.25 -44.08,0 -86.67,-17.25 -126.39,-52.46 -41.56,-35.24 -71.78,-90.76 -93.45,-165.11 -16.42,-56.87 -24.79,-173.4 -24.79,-347.778 V 555.102 H 5430.22 V 1559.71"
         style="fill:#e91b3e;fill-opacity:1;fill-rule:nonzero;stroke:none"
         id="path46" /><path
         d="m 6104.09,1559.71 h 122.34 v -179.76 c 48.55,68.87 104.11,120.39 162.93,154.05 59.42,34.23 124.81,51.48 194.7,51.48 71.79,0 134.89,-18.79 190.22,-56.92 55.01,-39.1 96.58,-90.58 122.53,-154.05 26.69,-65.01 39.47,-165.07 39.47,-302.71 V 555.102 h -122.29 v 478.568 c 0,116.34 -5.07,193.76 -13.95,232.87 -14.32,66.35 -41.01,116.3 -82.25,149.96 -40.04,32.32 -92.49,50.13 -158.52,50.13 -73.33,0 -140.1,-25.72 -199.11,-77.24 -59.42,-52.59 -98.16,-116.48 -115.93,-191.76 -11.43,-50.13 -17.8,-142.25 -17.8,-273.458 V 555.102 H 6104.09 V 1559.71"
         style="fill:#e91b3e;fill-opacity:1;fill-rule:nonzero;stroke:none"
         id="path48" /><path
         d="M 8204.73,1559.33 V 541.512 H 8079.32 V 717.09 c -53.43,-67.379 -113.46,-116.899 -178.84,-151.168 -66.39,-32.692 -139.72,-50.5 -218.49,-50.5 -139.74,0 -260.12,52.039 -358.61,157.539 -98.72,103.918 -149.21,230.309 -149.21,381.059 0,145.13 50.49,271.32 150.51,375.48 100.26,104.12 220.09,155.96 361.4,155.96 81.28,0 154.42,-17.81 219.8,-53.42 67.01,-35.62 124.48,-89.19 173.44,-160.06 v 187.35 z m -507.87,-99.65 c -70.81,0 -136.24,-17.8 -197.2,-53.43 -60.36,-37.15 -107.04,-86.71 -142.61,-152.1 -34.69,-64.44 -53.62,-133.36 -53.62,-204.22 0,-72.77 18.93,-141.258 53.62,-205.532 35.57,-65.968 83.56,-116.468 143.59,-153.679 61.56,-35.571 125.41,-54.91 194.69,-54.91 69.47,0 136.29,19.339 198.74,54.91 61.37,35.66 109.55,84.82 144.2,146.761 33.1,61.329 49,131.168 49,208.03 0,117.83 -37.2,216.55 -111.92,294.76 -75.79,79.33 -169.49,119.41 -278.49,119.41"
         style="fill:#e91b3e;fill-opacity:1;fill-rule:nonzero;stroke:none"
         id="path50" /><path
         d="m 8442,1545.98 c 13.35,0 26.69,-3.07 39.1,-8.51 13.53,-6.37 22.83,-17.44 29.76,-29.81 8.56,-12.36 10.88,-26.13 10.88,-41.01 0,-13.95 -2.32,-27.29 -9.25,-39.71 -8.56,-12.37 -17.81,-23.2 -29.85,-30.13 -13.95,-6.42 -25.76,-9.53 -40.64,-9.53 -13.72,0 -27.3,3.11 -39.67,9.53 -11.81,6.93 -21.29,17.76 -29.62,30.13 -6.97,12.42 -9.43,25.76 -9.43,39.71 0,14.88 2.46,28.65 9.43,41.01 8.33,12.42 17.86,23.44 29.62,29.81 13.91,5.44 27.29,8.51 39.67,8.51 m 0,-11.02 c -10.83,0 -21.67,-2.93 -32.69,-9.3 -10.89,-5.63 -18.79,-13.9 -24.23,-24.78 -6.93,-11.02 -9.48,-21.86 -9.48,-34.23 0,-10.83 2.55,-21.9 9.48,-32.73 5.44,-10.83 13.34,-19.35 24.23,-24.74 11.02,-6.98 21.86,-9.48 32.69,-9.48 11.99,0 22.83,2.5 33.71,9.48 11.02,5.39 18.92,13.91 24.36,24.74 5.39,10.88 9.26,21.9 9.26,32.73 0,12.37 -3.87,23.21 -9.26,34.23 -5.44,10.88 -14.92,19.15 -24.36,24.78 -10.88,6.42 -21.72,9.3 -33.71,9.3 m -34.04,-111.87 v 86.11 h 28.65 c 10.78,0 17.38,0 22.83,-1.54 3.86,-2.88 8.32,-5.39 10.78,-9.86 3.12,-3.9 4.09,-7.94 4.09,-11.81 0,-6.97 -2.51,-12.41 -6.55,-16.45 -5.44,-4.47 -10.88,-6.79 -19.16,-8.33 4.42,-1.53 5.39,-3.11 8.28,-4.04 2.51,-4.47 6.42,-9.9 11.81,-17.81 l 11.06,-16.27 h -17.43 l -6.97,13.38 c -6.75,10.84 -10.79,17.76 -14.7,20.7 -3.12,0.97 -6.97,2.51 -11.03,2.51 h -7.94 v -36.59 z m 13.72,48.95 h 15.85 c 8.51,0 13.95,0 16.46,3.12 3.91,2.28 5.45,5.39 5.45,9.26 0,2.51 -1.54,5.44 -2.56,6.97 -1.53,2.51 -2.89,3.86 -5.4,5.44 -2.88,0 -8.51,0.97 -14.87,0.97 h -14.93 v -25.76"
         style="fill:#e91b3e;fill-opacity:1;fill-rule:nonzero;stroke:none"
         id="path52" /></g></g></svg>
